<svg xmlns="http://www.w3.org/2000/svg" xmlns:xlink="http://www.w3.org/1999/xlink" width="500" zoomAndPan="magnify" viewBox="0 0 375 374.999991" height="500" preserveAspectRatio="xMidYMid meet" version="1.0"><defs><g/><clipPath id="aac50e813c"><path d="M 42 37.5 L 344.347656 37.5 L 344.347656 339.847656 L 42 339.847656 Z M 42 37.5 " clip-rule="nonzero"/></clipPath><clipPath id="c50c269cf4"><path d="M 193.171875 37.5 C 109.683594 37.5 42 105.183594 42 188.671875 C 42 272.164062 109.683594 339.847656 193.171875 339.847656 C 276.664062 339.847656 344.347656 272.164062 344.347656 188.671875 C 344.347656 105.183594 276.664062 37.5 193.171875 37.5 Z M 193.171875 37.5 " clip-rule="nonzero"/></clipPath><clipPath id="ff894b5b61"><path d="M 304.648438 215.773438 L 324.25 215.773438 L 324.25 235.375 L 304.648438 235.375 Z M 304.648438 215.773438 " clip-rule="nonzero"/></clipPath><clipPath id="7e5ffb51a8"><path d="M 314.449219 215.773438 C 309.035156 215.773438 304.648438 220.160156 304.648438 225.574219 C 304.648438 230.988281 309.035156 235.375 314.449219 235.375 C 319.863281 235.375 324.25 230.988281 324.25 225.574219 C 324.25 220.160156 319.863281 215.773438 314.449219 215.773438 Z M 314.449219 215.773438 " clip-rule="nonzero"/></clipPath></defs><g clip-path="url(#aac50e813c)"><g clip-path="url(#c50c269cf4)"><path fill="#831ed2" d="M 42 37.5 L 344.347656 37.5 L 344.347656 339.847656 L 42 339.847656 Z M 42 37.5 " fill-opacity="1" fill-rule="nonzero"/></g></g><g fill="#ffffff" fill-opacity="1"><g transform="translate(65.914625, 236.618298)"><g><path d="M 27.296875 2.125 C 22.671875 2.125 18.519531 1.582031 14.84375 0.5 C 11.164062 -0.582031 7.773438 -1.925781 4.671875 -3.53125 L 4.8125 -20.359375 L 6.21875 -20.359375 L 11.03125 -11.875 C 13.101562 -8.101562 15.390625 -5.296875 17.890625 -3.453125 C 20.390625 -1.617188 23.570312 -0.703125 27.4375 -0.703125 C 31.96875 -0.703125 35.625 -1.710938 38.40625 -3.734375 C 41.1875 -5.765625 42.578125 -8.476562 42.578125 -11.875 C 42.578125 -14.988281 41.582031 -17.535156 39.59375 -19.515625 C 37.613281 -21.492188 33.941406 -23.285156 28.578125 -24.890625 L 22.625 -26.734375 C 16.875 -28.429688 12.347656 -31.070312 9.046875 -34.65625 C 5.753906 -38.238281 4.109375 -42.625 4.109375 -47.8125 C 4.109375 -54.03125 6.554688 -59.304688 11.453125 -63.640625 C 16.359375 -67.984375 23.382812 -70.15625 32.53125 -70.15625 C 36.207031 -70.15625 39.671875 -69.753906 42.921875 -68.953125 C 46.179688 -68.148438 49.316406 -66.945312 52.328125 -65.34375 L 51.484375 -50.0625 L 50.0625 -50.0625 L 45.125 -58.84375 C 43.332031 -61.945312 41.5625 -64.132812 39.8125 -65.40625 C 38.070312 -66.6875 35.457031 -67.328125 31.96875 -67.328125 C 28.757812 -67.328125 25.738281 -66.429688 22.90625 -64.640625 C 20.082031 -62.847656 18.671875 -60.300781 18.671875 -57 C 18.671875 -53.789062 19.875 -51.242188 22.28125 -49.359375 C 24.6875 -47.472656 28.242188 -45.726562 32.953125 -44.125 L 39.3125 -42.296875 C 46.101562 -40.210938 50.957031 -37.351562 53.875 -33.71875 C 56.800781 -30.09375 58.265625 -25.738281 58.265625 -20.65625 C 58.265625 -13.769531 55.550781 -8.25 50.125 -4.09375 C 44.707031 0.0507812 37.097656 2.125 27.296875 2.125 Z M 27.296875 2.125 "/></g></g></g><g fill="#ffffff" fill-opacity="1"><g transform="translate(119.800415, 236.618298)"><g><path d="M 23.484375 2.125 C 18.015625 2.125 13.414062 0.566406 9.6875 -2.546875 C 5.96875 -5.660156 4.109375 -10.140625 4.109375 -15.984375 C 4.109375 -20.410156 6.367188 -24.484375 10.890625 -28.203125 C 15.421875 -31.929688 22.539062 -34.738281 32.25 -36.625 C 33.757812 -36.914062 35.457031 -37.222656 37.34375 -37.546875 C 39.226562 -37.878906 41.207031 -38.234375 43.28125 -38.609375 L 43.28125 -49.78125 C 43.28125 -56.195312 42.5 -60.703125 40.9375 -63.296875 C 39.382812 -65.890625 36.957031 -67.1875 33.65625 -67.1875 C 31.394531 -67.1875 29.601562 -66.453125 28.28125 -64.984375 C 26.96875 -63.523438 26.117188 -61.003906 25.734375 -57.421875 L 25.453125 -55.875 C 25.265625 -51.8125 24.273438 -48.835938 22.484375 -46.953125 C 20.691406 -45.066406 18.476562 -44.125 15.84375 -44.125 C 13.382812 -44.125 11.351562 -44.878906 9.75 -46.390625 C 8.15625 -47.898438 7.359375 -49.925781 7.359375 -52.46875 C 7.359375 -56.332031 8.703125 -59.582031 11.390625 -62.21875 C 14.078125 -64.863281 17.632812 -66.847656 22.0625 -68.171875 C 26.5 -69.492188 31.304688 -70.15625 36.484375 -70.15625 C 44.878906 -70.15625 51.363281 -68.101562 55.9375 -64 C 60.507812 -59.894531 62.796875 -53.222656 62.796875 -43.984375 L 62.796875 -12.734375 C 62.796875 -8.484375 64.773438 -6.359375 68.734375 -6.359375 L 71.84375 -6.359375 L 73.125 -5.234375 C 71.332031 -2.972656 69.375 -1.226562 67.25 0 C 65.132812 1.226562 62.140625 1.84375 58.265625 1.84375 C 54.117188 1.84375 50.84375 0.878906 48.4375 -1.046875 C 46.03125 -2.984375 44.453125 -5.554688 43.703125 -8.765625 C 40.878906 -5.753906 37.976562 -3.1875 35 -1.0625 C 32.03125 1.0625 28.191406 2.125 23.484375 2.125 Z M 32.109375 -6.5 C 33.992188 -6.5 35.757812 -6.945312 37.40625 -7.84375 C 39.0625 -8.738281 41.019531 -10.128906 43.28125 -12.015625 L 43.28125 -35.78125 C 42.332031 -35.59375 41.382812 -35.40625 40.4375 -35.21875 C 39.5 -35.03125 38.421875 -34.84375 37.203125 -34.65625 C 32.859375 -33.519531 29.390625 -31.609375 26.796875 -28.921875 C 24.203125 -26.234375 22.90625 -22.628906 22.90625 -18.109375 C 22.90625 -14.242188 23.800781 -11.34375 25.59375 -9.40625 C 27.382812 -7.46875 29.554688 -6.5 32.109375 -6.5 Z M 32.109375 -6.5 "/></g></g></g><g fill="#ffffff" fill-opacity="1"><g transform="translate(185.283762, 236.618298)"><g><path d="M 23.484375 2.125 C 18.015625 2.125 13.414062 0.566406 9.6875 -2.546875 C 5.96875 -5.660156 4.109375 -10.140625 4.109375 -15.984375 C 4.109375 -20.410156 6.367188 -24.484375 10.890625 -28.203125 C 15.421875 -31.929688 22.539062 -34.738281 32.25 -36.625 C 33.757812 -36.914062 35.457031 -37.222656 37.34375 -37.546875 C 39.226562 -37.878906 41.207031 -38.234375 43.28125 -38.609375 L 43.28125 -49.78125 C 43.28125 -56.195312 42.5 -60.703125 40.9375 -63.296875 C 39.382812 -65.890625 36.957031 -67.1875 33.65625 -67.1875 C 31.394531 -67.1875 29.601562 -66.453125 28.28125 -64.984375 C 26.96875 -63.523438 26.117188 -61.003906 25.734375 -57.421875 L 25.453125 -55.875 C 25.265625 -51.8125 24.273438 -48.835938 22.484375 -46.953125 C 20.691406 -45.066406 18.476562 -44.125 15.84375 -44.125 C 13.382812 -44.125 11.351562 -44.878906 9.75 -46.390625 C 8.15625 -47.898438 7.359375 -49.925781 7.359375 -52.46875 C 7.359375 -56.332031 8.703125 -59.582031 11.390625 -62.21875 C 14.078125 -64.863281 17.632812 -66.847656 22.0625 -68.171875 C 26.5 -69.492188 31.304688 -70.15625 36.484375 -70.15625 C 44.878906 -70.15625 51.363281 -68.101562 55.9375 -64 C 60.507812 -59.894531 62.796875 -53.222656 62.796875 -43.984375 L 62.796875 -12.734375 C 62.796875 -8.484375 64.773438 -6.359375 68.734375 -6.359375 L 71.84375 -6.359375 L 73.125 -5.234375 C 71.332031 -2.972656 69.375 -1.226562 67.25 0 C 65.132812 1.226562 62.140625 1.84375 58.265625 1.84375 C 54.117188 1.84375 50.84375 0.878906 48.4375 -1.046875 C 46.03125 -2.984375 44.453125 -5.554688 43.703125 -8.765625 C 40.878906 -5.753906 37.976562 -3.1875 35 -1.0625 C 32.03125 1.0625 28.191406 2.125 23.484375 2.125 Z M 32.109375 -6.5 C 33.992188 -6.5 35.757812 -6.945312 37.40625 -7.84375 C 39.0625 -8.738281 41.019531 -10.128906 43.28125 -12.015625 L 43.28125 -35.78125 C 42.332031 -35.59375 41.382812 -35.40625 40.4375 -35.21875 C 39.5 -35.03125 38.421875 -34.84375 37.203125 -34.65625 C 32.859375 -33.519531 29.390625 -31.609375 26.796875 -28.921875 C 24.203125 -26.234375 22.90625 -22.628906 22.90625 -18.109375 C 22.90625 -14.242188 23.800781 -11.34375 25.59375 -9.40625 C 27.382812 -7.46875 29.554688 -6.5 32.109375 -6.5 Z M 32.109375 -6.5 "/></g></g></g><g fill="#ffffff" fill-opacity="1"><g transform="translate(250.767114, 236.618298)"><g><path d="M 3.109375 0 L 3.109375 -1.421875 L 4.953125 -1.84375 C 6.742188 -2.3125 8.15625 -3.132812 9.1875 -4.3125 C 10.226562 -5.488281 10.75 -7.019531 10.75 -8.90625 C 10.75 -12.394531 10.769531 -15.859375 10.8125 -19.296875 C 10.863281 -22.742188 10.890625 -26.210938 10.890625 -29.703125 L 10.890625 -65.203125 L 2.96875 -65.203125 L 2.96875 -66.765625 L 6.078125 -67.328125 C 7.960938 -67.515625 9.328125 -68.171875 10.171875 -69.296875 C 11.023438 -70.429688 11.640625 -71.988281 12.015625 -73.96875 C 12.960938 -77.644531 14.351562 -80.875 16.1875 -83.65625 C 18.03125 -86.4375 20.128906 -89.007812 22.484375 -91.375 C 26.066406 -94.757812 29.863281 -97.132812 33.875 -98.5 C 37.882812 -99.875 41.820312 -100.5625 45.6875 -100.5625 C 49.457031 -100.5625 52.894531 -99.78125 56 -98.21875 C 59.113281 -96.664062 60.671875 -94.097656 60.671875 -90.515625 C 60.671875 -87.972656 59.914062 -85.96875 58.40625 -84.5 C 56.90625 -83.039062 54.785156 -82.3125 52.046875 -82.3125 C 49.785156 -82.3125 47.710938 -82.925781 45.828125 -84.15625 C 43.941406 -85.382812 42.101562 -87.550781 40.3125 -90.65625 L 38.328125 -93.0625 C 37.296875 -94.382812 36.257812 -95.019531 35.21875 -94.96875 C 34.175781 -94.925781 33.421875 -94.148438 32.953125 -92.640625 C 32.296875 -89.335938 31.800781 -85.46875 31.46875 -81.03125 C 31.132812 -76.601562 30.96875 -72.269531 30.96875 -68.03125 L 46.8125 -68.03125 L 46.8125 -65.203125 L 30.96875 -65.203125 L 30.96875 -9.1875 C 30.96875 -5.601562 32.851562 -3.296875 36.625 -2.265625 L 40.171875 -1.421875 L 40.171875 0 Z M 3.109375 0 "/></g></g></g><g clip-path="url(#ff894b5b61)"><g clip-path="url(#7e5ffb51a8)"><path fill="#ffffff" d="M 304.648438 215.773438 L 324.25 215.773438 L 324.25 235.375 L 304.648438 235.375 Z M 304.648438 215.773438 " fill-opacity="1" fill-rule="nonzero"/></g></g></svg>